<?xml version="1.0" encoding="UTF-8" standalone="no"?>
<!-- Created with Inkscape (http://www.inkscape.org/) -->

<svg
   width="80mm"
   height="92mm"
   viewBox="0 0 79.999995 91.999995"
   version="1.1"
   id="svg15258"
   inkscape:version="1.2.1 (9c6d41e4, 2022-07-14)"
   sodipodi:docname="blank.svg"
   xml:space="preserve"
   inkscape:export-filename="../card_png/koishi_komeiji.png"
   inkscape:export-xdpi="96"
   inkscape:export-ydpi="96"
   xmlns:inkscape="http://www.inkscape.org/namespaces/inkscape"
   xmlns:sodipodi="http://sodipodi.sourceforge.net/DTD/sodipodi-0.dtd"
   xmlns:xlink="http://www.w3.org/1999/xlink"
   xmlns="http://www.w3.org/2000/svg"
   xmlns:svg="http://www.w3.org/2000/svg"><sodipodi:namedview
     id="namedview15260"
     pagecolor="#505050"
     bordercolor="#eeeeee"
     borderopacity="1"
     inkscape:showpageshadow="0"
     inkscape:pageopacity="0"
     inkscape:pagecheckerboard="0"
     inkscape:deskcolor="#505050"
     inkscape:document-units="mm"
     showgrid="false"
     inkscape:zoom="0.35926537"
     inkscape:cx="-645.76221"
     inkscape:cy="896.27341"
     inkscape:window-width="1440"
     inkscape:window-height="872"
     inkscape:window-x="0"
     inkscape:window-y="0"
     inkscape:window-maximized="0"
     inkscape:current-layer="g39728" /><defs
     id="defs15255"><linearGradient
       inkscape:collect="always"
       id="linearGradient3351"><stop
         style="stop-color:#000000;stop-opacity:1;"
         offset="0"
         id="stop3347" /><stop
         style="stop-color:#000000;stop-opacity:0;"
         offset="1"
         id="stop3349" /></linearGradient><linearGradient
       inkscape:collect="always"
       id="linearGradient3038"><stop
         style="stop-color:#292929;stop-opacity:1;"
         offset="0"
         id="stop3034" /><stop
         style="stop-color:#000000;stop-opacity:1;"
         offset="1"
         id="stop3036" /></linearGradient><clipPath
       clipPathUnits="userSpaceOnUse"
       id="clipPath24377"><rect
         style="fill:#574817;fill-opacity:1;stroke:none;stroke-width:4;stroke-linecap:round;stroke-linejoin:round;stroke-dasharray:none;stroke-opacity:1"
         id="rect24379"
         width="53.164158"
         height="74.553146"
         x="250.85606"
         y="127.46567"
         inkscape:label="rect236-8"
         inkscape:export-filename="Downloads/reimu-8.png"
         inkscape:export-xdpi="96"
         inkscape:export-ydpi="96"
         mask="none" /></clipPath><clipPath
       clipPathUnits="userSpaceOnUse"
       id="clipPath25592"><path
         style="fill:#292d0c;fill-opacity:1;stroke:none;stroke-width:7.10838;stroke-linecap:round;stroke-linejoin:round;stroke-dasharray:none;paint-order:stroke fill markers"
         d="m 339.73161,171.01016 0.12113,-29.24398 8.1793,-6.96055 8.17933,-6.96055 h 8.59192 8.59195 l 8.2663,7.06002 8.26627,7.06001 v 29.14452 29.1445 h -25.15865 -25.15865 z"
         id="path25594"
         inkscape:label="path18739" /></clipPath><clipPath
       clipPathUnits="userSpaceOnUse"
       id="clipPath24377-3"><rect
         style="fill:#574817;fill-opacity:1;stroke:none;stroke-width:4;stroke-linecap:round;stroke-linejoin:round;stroke-dasharray:none;stroke-opacity:1"
         id="rect24379-6"
         width="53.164158"
         height="74.553146"
         x="250.85606"
         y="127.46567"
         inkscape:label="rect236-8"
         inkscape:export-filename="Downloads/reimu-8.png"
         inkscape:export-xdpi="96"
         inkscape:export-ydpi="96"
         mask="none" /></clipPath><clipPath
       clipPathUnits="userSpaceOnUse"
       id="clipPath25592-6"><path
         style="fill:#292d0c;fill-opacity:1;stroke:none;stroke-width:7.10838;stroke-linecap:round;stroke-linejoin:round;stroke-dasharray:none;paint-order:stroke fill markers"
         d="m 339.73161,171.01016 0.12113,-29.24398 8.1793,-6.96055 8.17933,-6.96055 h 8.59192 8.59195 l 8.2663,7.06002 8.26627,7.06001 v 29.14452 29.1445 h -25.15865 -25.15865 z"
         id="path25594-4"
         inkscape:label="path18739" /></clipPath><clipPath
       clipPathUnits="userSpaceOnUse"
       id="clipPath7830"><path
         style="fill:#61678e;fill-opacity:1;stroke:none;stroke-width:1;stroke-linecap:round;stroke-linejoin:round;stroke-dasharray:none;stroke-opacity:1"
         d="m 422.53546,141.82154 v 59.57876 l 53.16415,1e-5 v -59.57877 c 0.0209,-7.52661 -5.87909,-15.10298 -17.59587,-14.97437 h -17.97241 c -14.92546,0.42607 -16.72632,7.6452 -17.59587,14.97437 z"
         id="path7832"
         sodipodi:nodetypes="ccccccc" /></clipPath><linearGradient
       inkscape:collect="always"
       id="linearGradient25186"><stop
         style="stop-color:#940000;stop-opacity:1;"
         offset="0"
         id="stop25182" /><stop
         style="stop-color:#fff492;stop-opacity:1;"
         offset="0.50871313"
         id="stop25192" /></linearGradient><clipPath
       clipPathUnits="userSpaceOnUse"
       id="clipPath24377-4"><rect
         style="fill:#574817;fill-opacity:1;stroke:none;stroke-width:4;stroke-linecap:round;stroke-linejoin:round;stroke-dasharray:none;stroke-opacity:1"
         id="rect24379-8"
         width="53.164158"
         height="74.553146"
         x="250.85606"
         y="127.46567"
         inkscape:label="rect236-8"
         inkscape:export-filename="Downloads/reimu-8.png"
         inkscape:export-xdpi="96"
         inkscape:export-ydpi="96"
         mask="none" /></clipPath><filter
       inkscape:collect="always"
       style="color-interpolation-filters:sRGB"
       id="filter6268-4-4"
       x="-0.078825966"
       y="-0.064509538"
       width="1.1576519"
       height="1.1290191"><feGaussianBlur
         inkscape:collect="always"
         stdDeviation="2.1114191"
         id="feGaussianBlur6270-8-8" /></filter><clipPath
       clipPathUnits="userSpaceOnUse"
       id="clipPath15856"><rect
         style="fill:url(#linearGradient15860);fill-opacity:1;stroke:none;stroke-width:4;stroke-linecap:round;stroke-linejoin:round;stroke-dasharray:none;stroke-opacity:1"
         id="rect15858"
         width="53.164158"
         height="74.553146"
         x="14.544611"
         y="10.352362"
         inkscape:label="rect236-8"
         inkscape:export-filename="Downloads/reimu.png"
         inkscape:export-xdpi="96"
         inkscape:export-ydpi="96"
         mask="none" /></clipPath><linearGradient
       inkscape:collect="always"
       xlink:href="#linearGradient25186"
       id="linearGradient15860"
       gradientUnits="userSpaceOnUse"
       gradientTransform="translate(-236.33586,-116.85485)"
       x1="249.96791"
       y1="123.64689"
       x2="304.2728"
       y2="202.35486" /><linearGradient
       inkscape:collect="always"
       xlink:href="#linearGradient3038"
       id="linearGradient3040"
       x1="40.771412"
       y1="8.3798504"
       x2="40.771427"
       y2="86.932587"
       gradientUnits="userSpaceOnUse" /><linearGradient
       inkscape:collect="always"
       xlink:href="#linearGradient3351"
       id="linearGradient3353"
       x1="30.27198"
       y1="46.482289"
       x2="54.357397"
       y2="46.482289"
       gradientUnits="userSpaceOnUse" /></defs><g
     inkscape:label="Layer 1"
     inkscape:groupmode="layer"
     id="layer1"><g
       id="g39728"><path
         id="rect236-1-3-0-1"
         clip-path="none"
         style="color:#000000;mix-blend-mode:normal;fill:#000000;fill-opacity:1;stroke:none;stroke-opacity:1;filter:url(#filter6268-4-4)"
         d="m 14.189326,8.37977 a 2.0002,2.0002 0 0 0 -1.99987,1.99988 v 35.05367 a 8.9764185,8.9764185 0 0 0 -7.12205,8.77828 8.9764185,8.9764185 0 0 0 7.12205,8.77827 v 1.642799 a 6.2125154,6.2125154 0 0 0 -4.18269,5.86682 6.2125154,6.2125154 0 0 0 4.18269,5.86683 v 8.56639 a 2.0002,2.0002 0 0 0 1.99987,1.99988 h 53.1642 a 2.0002,2.0002 0 0 0 1.99988,-1.99988 V 10.37965 a 2.0002,2.0002 0 0 0 -1.99988,-1.99988 z m 1.99988,4.00027 h 49.16444 v 70.552279 h -49.16444 v -6.5412 a 6.2125154,6.2125154 0 0 0 4.24264,-5.89163 6.2125154,6.2125154 0 0 0 -4.24264,-5.88801 V 62.92735 a 8.9764185,8.9764185 0 0 0 6.83111,-8.71575 8.9764185,8.9764185 0 0 0 -6.83111,-8.71162 z"
         inkscape:export-filename="../card_png/blank.png"
         inkscape:export-xdpi="96"
         inkscape:export-ydpi="96" /><path
         id="rect236-1-2-4"
         clip-path="none"
         style="color:#000000;fill:url(#linearGradient3040);fill-opacity:1;stroke:none;stroke-opacity:1"
         d="M 14.189315 8.3798503 A 2.0002 2.0002 0 0 0 12.189437 10.380245 L 12.189437 40.436292 A 8.9764185 8.9764185 0 0 0 5.1495565 49.199064 A 8.9764185 8.9764185 0 0 0 12.189437 57.961837 L 12.189437 59.855261 A 6.2125154 6.2125154 0 0 0 7.9633382 65.73759 A 6.2125154 6.2125154 0 0 0 12.189437 71.619401 L 12.189437 84.9328 A 2.0002 2.0002 0 0 0 14.189315 86.932678 L 67.353512 86.932678 A 2.0002 2.0002 0 0 0 69.353389 84.9328 L 69.353389 10.380245 A 2.0002 2.0002 0 0 0 67.353512 8.3798503 L 14.189315 8.3798503 z " /><text
         xml:space="preserve"
         style="font-size:66.5343px;font-family:saruji;-inkscape-font-specification:saruji;fill:#ffffff;fill-opacity:0.25255972;stroke:none;stroke-width:10;stroke-linecap:round;stroke-linejoin:round;stroke-dasharray:none;stroke-opacity:1;paint-order:stroke fill markers"
         x="25.611471"
         y="70.040184"
         id="text3220"><tspan
           sodipodi:role="line"
           id="tspan3218"
           style="font-style:normal;font-variant:normal;font-weight:normal;font-stretch:normal;font-family:Trattatello;-inkscape-font-specification:Trattatello;fill:#ffffff;fill-opacity:0.25255972;stroke:none;stroke-width:10;stroke-dasharray:none;stroke-opacity:1"
           x="25.611471"
           y="70.040184">?</tspan></text></g></g></svg>
